<?xml version="1.0" encoding="utf-8"?>
<!-- Generator: Adobe Illustrator 24.1.1, SVG Export Plug-In . SVG Version: 6.00 Build 0)  -->
<svg version="1.1" id="Layer_1" xmlns="http://www.w3.org/2000/svg" xmlns:xlink="http://www.w3.org/1999/xlink" x="0px" y="0px"
	 viewBox="0 0 1080 1080" style="enable-background:new 0 0 1080 1080;" xml:space="preserve">
<style type="text/css">
	.st0{fill:none;}
	.st1{fill:#A18B71;}
</style>
<g>
	<path class="st0" d="M326,632.9c-0.9-8.7-1.9-17.1-2.7-25.5c-1-11.1-0.4-22,4.8-32.1c7.9-15.3,23.5-19,37.2-8.8
		c4.5,3.4,8.4,7.5,12.2,11.8c9.5,10.7,18.5,21.9,28.1,32.4c11.5,12.5,25.1,21.8,42,25.6c22.9,5.2,43.2,0.1,60.3-16.3
		c1-1,1.4-2.6,2.2-4.2c-7.3,3.8-13.3,8.1-19.9,10.2c-17.1,5.3-33.4,1.7-46.9-9.5c-11.7-9.7-22.2-21-32.7-32.1
		c-10.8-11.4-21.7-22.6-37.1-27.9c-0.5-0.2-0.9-0.7-1.6-1.4c1.5-0.5,2.6-0.9,3.7-1.2c22-5.8,42.1-22,43.9-50
		c1.1-18-3.9-33.9-18.6-45.7c-11.9-9.6-25.8-13.7-40.8-14.1c-19.3-0.4-38.6-0.1-58-0.1c-1.1,0-2.3,0.2-2.4,0.2
		c4,63,3.6,125.7,0.2,188.6C308,632.9,317,632.9,326,632.9z M998.2,655.6c-0.2-0.4-0.5-0.8-0.7-1.2c-0.9,0.2-1.8,0.3-2.6,0.6
		c-23.8,8.8-45.8,4.5-66.5-9.1c-16.1-10.6-28.3-25.1-39.9-40.3c-1.3-1.6-1.6-4.3-1.6-6.5c-0.1-21.7-0.2-43.3,0-65
		c0.2-20.8,0.3-41.6,1-62.5c0.3-9.1,1.8-18.1,2.7-27.5c-1.3-0.1-2.8-0.2-4.3-0.2c-3.1,0-6.3,0-9.4,0c8,50,3,99.9,4.2,149.7
		c-1.5-0.8-2.5-1.7-3.2-2.8c-6.7-9.9-13.6-19.8-20.1-29.8c-17.8-27.3-35.1-55-53.1-82.1c-12.2-18.3-26.9-34.5-45.7-46.2
		c-25.3-15.8-52.3-19.7-80.6-8.6c-1.8,0.7-3.4,2-5.1,3c0.2,0.5,0.4,1,0.7,1.6c1.6-0.4,3.2-0.6,4.7-1.2c9.7-3.7,19.7-4.8,29.9-3
		c23.9,4,41.3,18.2,56.1,36.2c1.2,1.5,1.6,4,1.6,6c0.1,14.7,0.3,29.3,0,44c-0.5,35.6-1.2,71.2-2,106.9c-0.1,5-1.3,10-2,15.3
		c4.8,0,9.1,0,12.9,0c-1.1-13.7-2.9-27-3.1-40.4c-0.5-39.2-0.2-78.3-0.3-117.5c0-1.2,0.2-2.5,0.4-4.8c1.7,2.1,2.8,3.3,3.6,4.6
		c12.2,18.3,24.4,36.5,36.6,54.8c17.6,26.5,34.5,53.4,53,79.2c14.4,20.2,32.2,37.4,55.1,48.1c24.2,11.3,48.8,12,73.5,1.6
		C995.5,657.9,996.8,656.6,998.2,655.6z M744.7,632.8c-5.2-12.2-10.2-24-15.2-36c-1.8-4.3-3.2-8.7-4.9-13.1
		c-17.2-45.2-34.4-90.4-51.7-135.6c-0.6-1.6-2.2-2.8-3.4-4.1c-1.4,1.3-3.4,2.4-4,4c-13.2,36.4-26.2,72.9-39.4,109.3
		c-7.6,20.8-15.4,41.4-23.4,62c-1.8,4.5-4.3,8.8-6.6,13.3c5.1,0,9.7,0,13.5,0c1.8-9.1,2.8-17.9,5.2-26.3
		c6.3-22.4,20.3-37.2,43.3-43.2c10.5-2.7,20.8-6.4,31.9-9.9c8.5,25.7,22.3,50.8,26.2,79.5C726.2,632.8,735.8,632.8,744.7,632.8z
		 M282.4,632.8c-3.3-6.3-6.9-12-9.3-18.1c-12.2-31.4-24.2-63-36.2-94.5c-9.2-24.2-18.2-48.5-27.5-72.8c-0.5-1.4-2.2-3.1-3.5-3.1
		c-1.1,0-2.9,1.7-3.4,3.1c-3.9,10.4-7.5,21-11.4,31.4c-19.1,51.3-35.5,103.7-57.5,153.8c4.2,0,8.9,0,12.3,0
		c2.7-11.3,4.5-22.1,7.9-32.4c5.8-17.4,17.9-29.4,35.4-35.3c12.2-4,24.6-7.5,37.6-11.5c8.4,25.6,22.4,50.5,25.9,79.3
		C262.5,632.8,272.3,632.8,282.4,632.8z M920.5,614.5c1.1-3.8,2.2-7.4,3.3-11c6-19,17.9-32.4,37.2-38.6c12.1-3.9,24.3-7.4,37.3-11.4
		c8.5,25.6,21.8,50.9,26.8,79.1c9.6,0,19.2,0,28.7,0c-3.5-7-7.3-13.5-10-20.4c-14.2-36.4-28.1-72.8-42-109.3
		c-7-18.5-14-37-20.7-55.6c-1.1-3.1-2.9-4.2-5.5-2.9c-1.3,0.7-1.7,3-2.3,4.7c-18.6,51.2-37.1,102.5-55.9,153.6
		C915.5,607.8,915,611.5,920.5,614.5z M49.6,632.8c8.1,0,17,0,26.4,0c-5.2-32.4-2.4-64.6-3.3-97.3c2.2-0.1,3.8-0.3,5.4-0.3
		c14.5,0,29,0,43.5-0.1c1.9,0,5.2-1.4,5.3-2.2c0.2-4.3-3.5-2.5-5.5-2.5c-14.3-0.2-28.7-0.1-43-0.1c-1.8,0-3.5-0.2-4.7-0.2
		c0-27.3,0-54,0-81.2c29.6,0.5,58.7-2.8,85.8,13.4c-0.9-4.9-2.1-9.1-2.4-13.3c-0.3-4.2-2.2-5-6-5c-32.5,0.1-65,0.1-97.5,0.1
		c-1.7,0-3.5,0.1-4,0.2C53,507.3,53.3,569.8,49.6,632.8z M477.7,599.6c-3-14.3-3.9-28.2-2.9-42.2c1.2-18,12.1-31.2,29.7-34.6
		c6.6-1.3,13.6-1.2,20.3-2.1c8.2-1.1,16.7-1.6,24.4-4.2c16.2-5.4,26.2-16.8,27.9-34.2c1.3-12.6,1.8-25.4,2.6-38
		c-8.4,0-17.4,0-26.2,0c0.8,7.5,1.9,14.7,2.4,22c0.4,7.3,0.4,14.7,0.2,22c-0.4,15.8-8.9,25.1-24.5,26.9c-5.1,0.6-10.3,0.6-15.4,1
		c-7.5,0.6-15,0.8-22.3,2.2c-20.7,3.9-37.8,17.8-40,41.7c-0.8,8.5-1,16.9-1.7,25.4c-0.4,4.7-1.3,9.3-2,14.2
		C459.6,599.6,468.4,599.6,477.7,599.6z M577.2,509.6c-5.9,4.4-11.6,9.1-17.8,13.1c-2.5,1.6-3.2,3.1-3.2,5.9
		c-0.7,34.7,2.2,69.4-2.6,104.2c9.1,0,18.2,0,27.2,0C574.7,591.4,579.3,550.1,577.2,509.6z M449.9,444.3c5.9,29.5,2.3,59,3.8,89.3
		c5.5-8.1,11.4-14.1,19.3-17.8c1-0.5,1.4-2.7,1.5-4.2c0.5-19.1,0.9-38.3,1.4-57.4c0.1-3.2,0.8-6.4,1.2-9.9
		C467.8,444.3,459.2,444.3,449.9,444.3z"/>
	<path class="st1" d="M326,632.9c-9,0-17.9,0-26.2,0c3.4-62.9,3.8-125.7-0.2-188.6c0.2,0,1.3-0.2,2.4-0.2c19.3,0,38.7-0.3,58,0.1
		c14.9,0.3,28.8,4.5,40.8,14.1c14.7,11.8,19.8,27.7,18.6,45.7c-1.7,28-21.9,44.2-43.9,50c-1.1,0.3-2.2,0.7-3.7,1.2
		c0.8,0.7,1.1,1.2,1.6,1.4c15.4,5.3,26.3,16.5,37.1,27.9c10.5,11.1,21,22.4,32.7,32.1c13.5,11.2,29.8,14.8,46.9,9.5
		c6.6-2.1,12.6-6.4,19.9-10.2c-0.8,1.7-1.2,3.3-2.2,4.2c-17.1,16.5-37.4,21.5-60.3,16.3c-16.8-3.8-30.5-13.1-42-25.6
		c-9.7-10.5-18.6-21.7-28.1-32.4c-3.7-4.2-7.7-8.4-12.2-11.8c-13.7-10.3-29.3-6.5-37.2,8.8c-5.2,10.1-5.8,21-4.8,32.1
		C324,615.8,325,624.2,326,632.9z M322.9,572.1c1.3-0.9,1.8-1.1,2-1.4c6.8-11.5,17.2-17,30.2-18.7c10.8-1.4,20.7-5,28.1-13.5
		c13.9-16,15.9-34.7,11.3-54.4c-3.9-17-13.2-30.3-31.5-33.4c-11-1.9-22.5-1.1-33.8-1.9c-4.1-0.3-5.2,1.5-5.3,5.1
		c-0.3,10-0.9,20-0.9,29.9c-0.2,26.6-0.1,53.3-0.1,79.9C322.9,566.2,322.9,568.7,322.9,572.1z"/>
	<path class="st1" d="M998.2,655.6c-1.4,1-2.7,2.3-4.2,3c-24.7,10.4-49.3,9.6-73.5-1.6c-23-10.7-40.7-27.9-55.1-48.1
		c-18.5-25.8-35.4-52.8-53-79.2c-12.2-18.3-24.4-36.5-36.6-54.8c-0.9-1.3-2-2.5-3.6-4.6c-0.2,2.3-0.4,3.5-0.4,4.8
		c0,39.1-0.2,78.3,0.3,117.5c0.2,13.4,2,26.8,3.1,40.4c-3.9,0-8.1,0-12.9,0c0.7-5.2,1.9-10.2,2-15.3c0.8-35.6,1.5-71.2,2-106.9
		c0.2-14.7,0.1-29.3,0-44c0-2-0.4-4.5-1.6-6c-14.8-18-32.3-32.2-56.1-36.2c-10.2-1.7-20.2-0.7-29.9,3c-1.5,0.6-3.2,0.8-4.7,1.2
		c-0.2-0.5-0.4-1-0.7-1.6c1.7-1,3.3-2.2,5.1-3c28.3-11.1,55.2-7.2,80.6,8.6c18.8,11.7,33.6,27.9,45.7,46.2
		c18.1,27.1,35.4,54.8,53.1,82.1c6.5,10,13.3,19.9,20.1,29.8c0.7,1,1.7,1.9,3.2,2.8c-1.2-49.8,3.8-99.7-4.2-149.7c3.2,0,6.3,0,9.4,0
		c1.5,0,2.9,0.1,4.3,0.2c-1,9.4-2.4,18.4-2.7,27.5c-0.7,20.8-0.8,41.6-1,62.5c-0.2,21.7-0.1,43.3,0,65c0,2.2,0.4,4.9,1.6,6.5
		c11.5,15.1,23.8,29.7,39.9,40.3c20.7,13.6,42.7,17.8,66.5,9.1c0.8-0.3,1.7-0.4,2.6-0.6C997.7,654.8,997.9,655.2,998.2,655.6z"/>
	<path class="st1" d="M744.7,632.8c-8.9,0-18.5,0-28.3,0c-3.9-28.6-17.6-53.8-26.2-79.5c-11.1,3.5-21.4,7.1-31.9,9.9
		c-23,6-37,20.8-43.3,43.2c-2.4,8.4-3.5,17.2-5.2,26.3c-3.8,0-8.4,0-13.5,0c2.3-4.5,4.8-8.8,6.6-13.3c7.9-20.6,15.8-41.3,23.4-62
		c13.2-36.4,26.2-72.9,39.4-109.3c0.6-1.6,2.6-2.7,4-4c1.1,1.4,2.8,2.5,3.4,4.1c17.3,45.2,34.5,90.4,51.7,135.6
		c1.7,4.3,3.1,8.8,4.9,13.1C734.4,608.8,739.5,620.7,744.7,632.8z M627.6,569.7c0.3,0.3,0.6,0.6,1,0.9c12.2-9.8,27.1-12,41.5-15.8
		c4.4-1.2,8.6-3.4,12.8-5.3c3.4-1.6,4-4,2.6-7.8c-7.8-20-15.2-40.1-22.9-60.1c-0.4-0.9-1.1-1.7-2-3.3
		C649.4,509.3,638.5,539.5,627.6,569.7z"/>
	<path class="st1" d="M282.4,632.8c-10.1,0-19.8,0-29.5,0c-3.6-28.8-17.5-53.7-25.9-79.3c-13,4-25.4,7.4-37.6,11.5
		c-17.6,5.8-29.6,17.8-35.4,35.3c-3.4,10.3-5.2,21.1-7.9,32.4c-3.4,0-8,0-12.3,0c22-50.2,38.4-102.5,57.5-153.8
		c3.9-10.4,7.4-21,11.4-31.4c0.5-1.4,2.3-3.1,3.4-3.1c1.2,0.1,3,1.8,3.5,3.1c9.2,24.2,18.3,48.5,27.5,72.7
		c12,31.5,24,63.1,36.2,94.5C275.5,620.8,279.1,626.5,282.4,632.8z M197.4,477.9c-11.2,31.2-22.1,61.4-33,91.5c0.3,0.3,0.7,0.7,1,1
		c12.2-9.8,27.1-11.9,41.5-15.7c4.4-1.2,8.6-3.4,12.8-5.4c3.2-1.5,3.9-3.8,2.5-7.3c-7.6-19.7-14.9-39.5-22.3-59.3
		C199.4,481.4,198.6,480.2,197.4,477.9z"/>
	<path class="st1" d="M920.5,614.5c-5.5-3.1-5-6.7-3.2-11.8c18.8-51.1,37.3-102.4,55.9-153.6c0.6-1.7,1.1-4,2.3-4.7
		c2.5-1.4,4.3-0.3,5.5,2.9c6.8,18.6,13.7,37.1,20.7,55.6c13.9,36.5,27.9,72.9,42.1,109.3c2.7,6.9,6.5,13.4,10,20.4
		c-9.5,0-19.1,0-28.7,0c-5.1-28.2-18.3-53.5-26.8-79.1c-13,4-25.2,7.5-37.3,11.4c-19.3,6.2-31.2,19.6-37.2,38.6
		C922.7,607.1,921.7,610.8,920.5,614.5z M969.9,478.7c-0.5,0-0.9-0.1-1.4-0.1c-10.9,30.3-21.8,60.7-32.8,91c0.4,0.3,0.8,0.6,1.2,0.9
		c9.9-8,21.8-10.9,33.8-13.9c4.8-1.2,9.8-2.2,14.4-4c9.9-3.9,10.5-5.3,6.9-15.2C984.7,517.8,977.3,498.3,969.9,478.7z"/>
	<path class="st1" d="M49.6,632.8c3.7-63,3.4-125.4,0-188.5c0.5,0,2.2-0.2,4-0.2c32.5,0,65,0,97.5-0.1c3.9,0,5.7,0.8,6,5
		s1.5,8.3,2.4,13.3c-27.1-16.2-56.2-12.9-85.8-13.4c0,27.2,0,53.9,0,81.2c1.2,0,2.9,0.2,4.7,0.2c14.3,0,28.7-0.1,43,0.1
		c2,0,5.7-1.8,5.5,2.5c0,0.9-3.4,2.2-5.3,2.2c-14.5,0.2-29,0.1-43.5,0.1c-1.6,0-3.2,0.2-5.4,0.3c0.8,32.6-1.9,64.9,3.3,97.3
		C66.6,632.8,57.7,632.8,49.6,632.8z"/>
	<path class="st1" d="M477.7,599.6c-9.3,0-18.1,0-27.5,0c0.7-4.9,1.5-9.5,2-14.2c0.7-8.5,0.9-17,1.7-25.4
		c2.3-23.9,19.4-37.8,40-41.7c7.3-1.4,14.9-1.5,22.3-2.2c5.1-0.4,10.3-0.4,15.4-1c15.6-1.8,24.1-11.1,24.5-26.9
		c0.2-7.3,0.2-14.7-0.2-22s-1.5-14.5-2.4-22c8.8,0,17.8,0,26.2,0c-0.9,12.7-1.4,25.4-2.6,38c-1.7,17.4-11.7,28.8-27.9,34.2
		c-7.8,2.6-16.2,3.1-24.4,4.2c-6.7,0.9-13.6,0.8-20.3,2.1c-17.6,3.4-28.5,16.6-29.7,34.6C473.8,571.5,474.7,585.3,477.7,599.6z"/>
	<path class="st1" d="M577.2,509.6c2.1,40.5-2.5,81.8,3.5,123.1c-9,0-18,0-27.2,0c4.8-34.7,1.9-69.5,2.6-104.2
		c0-2.7,0.7-4.2,3.2-5.9C565.6,518.7,571.3,514,577.2,509.6z"/>
	<path class="st1" d="M449.9,444.3c9.3,0,17.9,0,27.1,0c-0.4,3.5-1.1,6.7-1.2,9.9c-0.5,19.1-0.9,38.3-1.4,57.4
		c0,1.5-0.5,3.7-1.5,4.2c-8,3.7-13.8,9.7-19.3,17.8C452.2,503.2,455.8,473.8,449.9,444.3z"/>
	<path class="st0" d="M322.9,572.1c0-3.4,0-5.9,0-8.3c0-26.6,0-53.3,0.1-79.9c0.1-10,0.7-20,0.9-29.9c0.1-3.6,1.2-5.4,5.3-5.1
		c11.3,0.7,22.7,0,33.8,1.9c18.3,3.1,27.5,16.4,31.5,33.4c4.5,19.7,2.6,38.4-11.3,54.4c-7.4,8.5-17.3,12.2-28.1,13.5
		c-13,1.7-23.4,7.2-30.2,18.7C324.7,571,324.2,571.2,322.9,572.1z"/>
	<path class="st0" d="M627.6,569.7c10.9-30.2,21.8-60.4,32.9-91.5c1,1.6,1.7,2.4,2,3.3c7.6,20,15.1,40.1,22.9,60.1
		c1.5,3.7,0.8,6.2-2.6,7.8c-4.2,2-8.4,4.2-12.8,5.3c-14.4,3.8-29.3,6-41.5,15.8C628.3,570.3,628,570,627.6,569.7z"/>
	<path class="st0" d="M197.4,477.9c1.2,2.3,2,3.5,2.5,4.8c7.4,19.8,14.8,39.5,22.3,59.3c1.4,3.6,0.7,5.8-2.5,7.3
		c-4.2,2-8.4,4.2-12.8,5.4c-14.4,3.8-29.3,6-41.5,15.7c-0.3-0.3-0.7-0.7-1-1C175.3,539.3,186.2,509.1,197.4,477.9z"/>
	<path class="st0" d="M969.9,478.7c7.4,19.5,14.8,39,22.1,58.6c3.7,9.9,3,11.3-6.9,15.2c-4.6,1.8-9.5,2.8-14.4,4
		c-11.9,3-23.8,5.9-33.8,13.9c-0.4-0.3-0.8-0.6-1.2-0.9c10.9-30.3,21.8-60.7,32.8-91C969,478.6,969.4,478.7,969.9,478.7z"/>
</g>
</svg>
